inDegrees=yes
name=ik_lifting_orientations
DataType=double
version=3
OpenSimVersion=4.5-2024-01-10-34fd6af
endheader
time	pelvis_tilt	pelvis_list	pelvis_rotation	pelvis_tx	pelvis_ty	pelvis_tz	hip_flexion_r	hip_adduction_r	hip_rotation_r	knee_angle_r	knee_angle_r_beta	ankle_angle_r	subtalar_angle_r	mtp_angle_r	hip_flexion_l	hip_adduction_l	hip_rotation_l	knee_angle_l	knee_angle_l_beta	ankle_angle_l	subtalar_angle_l	mtp_angle_l	lumbar_extension	lumbar_bending	lumbar_rotation	arm_flex_r	arm_add_r	arm_rot_r	elbow_flex_r	pro_sup_r	wrist_flex_r	wrist_dev_r	arm_flex_l	arm_add_l	arm_rot_l	elbow_flex_l	pro_sup_l	wrist_flex_l	wrist_dev_l
0.75	-12.35681810054609	-3.665163589376817	-147.0637946024488	0	0.9399999998679526	0	44.99519984523926	-10.1841550549008	0	59.9977427562123	1.047158154860482	-5.051574597820252	0	0	44.99519984523926	-10.1841550549008	0	59.9977427562123	1.047158154860482	-5.051574597820252	0	0	-54.80050966150761	4.447489419743366	30.92276029918063	34.18328055449895	-26.42760611443738	48.08759889378396	2.267764958727394	1.554904811186598	0	0	0	-11.74059784368541	0	88.47581887829959	1.554904811186598	0	0
0.76	-14.01202889358213	-3.795507352447611	-149.7632168090018	0	0.9399999998679526	0	44.99520138923756	-10.18395072546267	0	59.99774336770635	1.047158165533067	-5.051500140755142	0	0	44.99520138923756	-10.18395072546267	0	59.99774336770635	1.047158165533067	-5.051500140755142	0	0	-57.00717363238856	2.89040079176329	32.57530221449548	34.94997353995105	-26.37245003646004	48.77392032402006	1.794843942728297	1.554555372274379	0	0	0	-11.74113894396117	0	88.47616136993014	1.554555372274379	0	0
0.77	-15.72143422178842	-3.884761754230009	-152.3239253164732	0	0.9399999998679526	0	44.99520294427312	-10.18374517491944	0	59.99774398381361	1.047158176286167	-5.051425268585999	0	0	44.99520294427312	-10.18374517491944	0	59.99774398381361	1.047158176286167	-5.051425268585999	0	0	-59.11900080382131	1.344900323544103	34.10586611486593	35.61480880664293	-26.28678188647753	49.38425983626743	1.330588870173298	1.554203357460264	0	0	0	-11.74168412349436	0	88.47650638625505	1.554203357460264	0	0
0.78	-17.36809351238348	-4.007587309735926	-154.2073259465878	0	0.9399999998679526	0	44.99520477593838	-10.18350347447503	0	59.99774471016096	1.04715818896332	-5.051337272171674	0	0	44.99520477593838	-10.18350347447503	0	59.99774471016096	1.04715818896332	-5.051337272171674	0	0	-61.20993173218498	0.2585934886117038	35.07306622466004	36.5665251480947	-26.0366000123195	50.35557057642046	0.6968051570897604	1.553788551231326	0	0	0	-11.7423267637673	0	88.47691294563386	1.553788551231326	0	0
0.79	-19.1417976067588	-4.304481243226851	-154.8481998977604	0	0.9399999998679526	0	44.99520667887627	-10.18325312468713	0	59.99774546597855	1.047158202154825	-5.051246202944859	0	0	44.99520667887627	-10.18325312468713	0	59.99774546597855	1.047158202154825	-5.051246202944859	0	0	-63.69177929594716	0.1227462651922764	35.36142485562969	37.5358559021852	-26.08396081581443	51.05293478306304	0.3998479094678558	1.553357297096148	0	0	0	-11.74299526433625	0	88.47733562593139	1.553357297096148	0	0
0.8	-20.92248342973333	-4.570273879597782	-155.5195110498495	0	0.9399999998679526	0	44.99520835005825	-10.18303300590546	0	59.99774612853774	1.047158213718665	-5.051166135414581	0	0	44.99520835005825	-10.18303300590546	0	59.99774612853774	1.047158213718665	-5.051166135414581	0	0	-66.25199852161546	-0.07198114442897684	35.66069876484629	38.54566664375864	-26.28968422277537	51.63757315873094	0.2685831594074526	1.552978795097254	0	0	0	-11.74358166412754	0	88.47770660285521	1.552978795097254	0	0
0.8100000000000001	-22.740679573056	-4.957387748301794	-155.6231040080693	0	0.9399999998679526	0	44.99521033505258	-10.18277014858839	0	59.99774691172698	1.047158227387895	-5.051070440556015	0	0	44.99521033505258	-10.18277014858839	0	59.99774691172698	1.047158227387895	-5.051070440556015	0	0	-68.75864340671264	0.2264056123111576	35.55219321511468	39.36511953771357	-26.47536634666095	52.16569294665532	0.1982173783381715	1.552530021279702	0	0	0	-11.74427586794569	0	88.47814645446829	1.552530021279702	0	0
0.82	-24.53048259996758	-5.288363774099603	-155.9615311432169	0	0.9399999998679526	0	44.99521241504383	-10.18249456987174	0	59.99774773149898	1.047158241695616	-5.050970127028825	0	0	44.99521241504383	-10.18249456987174	0	59.99774773149898	1.047158241695616	-5.050970127028825	0	0	-71.02512309993018	0.2459336513854665	35.76857845984776	40.00519373408119	-26.67886875416643	52.35641335831982	0.1535821613896945	1.552059926909102	0	0	0	-11.74500282748672	0	88.47860720274709	1.552059926909102	0	0
0.83	-26.17732668537786	-5.507833581166783	-156.6108553653358	0	0.9399999998679526	0	44.99521454168036	-10.18221258328382	0	59.99774856849803	1.047158256304005	-5.050867489689692	0	0	44.99521454168036	-10.18221258328382	0	59.99774856849803	1.047158256304005	-5.050867489689692	0	0	-72.83624424240081	-0.07655272054605154	36.29297454307232	40.3220409498692	-26.93128995672993	52.24405660178802	0.1260413892081762	1.551579501182941	0	0	0	-11.74574546501236	0	88.47907807697057	1.551579501182941	0	0
0.84	-27.67930411169527	-5.763390489073301	-156.8987336094895	0	0.9399999998679526	0	44.99521671557547	-10.1819244206719	0	59.99774942367678	1.04715827122969	-5.050762636207963	0	0	44.99521671557547	-10.1819244206719	0	59.99774942367678	1.04715827122969	-5.050762636207963	0	0	-74.84616557630044	-0.1593640859185586	36.59603894541929	41.10694472817134	-27.26834460407287	52.1549438387684	0.1180948430711161	1.55108844616994	0	0	0	-11.74650444874755	0	88.47955936915517	1.55108844616994	0	0
